#!OML:ASF X:\für Bonn\!DataBase\2005_08_11_Bastian_Final\c3d\Bastian.ASF
:FULLY-SPECIFIED
:DEGREES
124
root 24.2653 17.0491 -2.49529 354.008 -76.2155 16.9442
lowerback 60.6936 -5.04674 18.2781
upperback 16.7964 1.59339 2.69131
thorax -0.987402 0.393486 -5.15473
lowerneck -4.2042 -9.55848 0.370736
upperneck -18.7516 -12.5138 7.79994
head -4.48196 -7.02006 2.65952
rclavicle -1.90833e-014 -7.15625e-015
rhumerus 49.1398 -1.87154 -46.472
rradius 16.6816
rwrist -2.84433
rhand -24.5368 -4.4653
rfingers 7.12502
rthumb 1.9589 -34.4361
lclavicle -1.90833e-014 -7.15625e-015
lhumerus -5.50433 -27.3923 84.941
lradius 50.2814
lwrist 27.2645
lhand -14.0863 -12.0222
lfingers 7.12502
lthumb 12.0459 17.6111
rfemur -44.4976 -9.78263 21.6174
rtibia 47.9121
rfoot -6.58428 1.5477
rtoes 5.81522
lfemur -38.3716 3.36156 -27.0394
ltibia 28.0179
lfoot 6.16726 -2.03568
ltoes -1.59359
125
root 24.2536 17.0403 -2.48945 353.438 -76.1353 18.2196
lowerback 61.2673 -5.15363 18.2275
upperback 16.6764 1.57555 2.61802
thorax -1.13428 0.378365 -5.17487
lowerneck -4.35827 -9.5627 0.474655
upperneck -19.1648 -12.5347 7.78953
head -4.59299 -7.05987 2.65345
rclavicle -4.77083e-014 1.5704e-014
rhumerus 49.8024 -2.53028 -46.2269
rradius 16.612
rwrist -2.60425
rhand -24.4869 -4.47968
rfingers 7.12502
rthumb 2.00712 -34.45
lclavicle -4.77083e-014 1.5704e-014
lhumerus -5.47297 -27.612 84.8786
lradius 50.4001
lwrist 27.6322
lhand -14.244 -12.0515
lfingers 7.12502
lthumb 11.8938 17.5907
rfemur -45.4113 -9.79702 21.3717
rtibia 48.2677
rfoot -6.69797 1.51565
rtoes 5.77785
lfemur -39.1134 3.52959 -27.5808
ltibia 28.0995
lfoot 6.22005 -2.35527
ltoes -1.44567
126
root 24.2401 17.0298 -2.48413 352.922 -76.0677 19.4618
lowerback 61.8286 -5.23901 18.1528
upperback 16.5363 1.5719 2.55039
thorax -1.30368 0.366691 -5.18611
lowerneck -4.47141 -9.55439 0.550325
upperneck -19.5687 -12.5367 7.78087
head -4.7066 -7.08811 2.65384
rclavicle 2.54444e-014 -3.19298e-014
rhumerus 50.441 -3.20336 -46.0559
rradius 16.5422
rwrist -2.27573
rhand -24.4591 -4.47866
rfingers 7.12502
rthumb 2.03393 -34.4487
lclavicle 2.54444e-014 -3.19298e-014
lhumerus -5.51217 -27.8383 84.8187
lradius 50.5849
lwrist 27.9853
lhand -14.3642 -12.0542
lfingers 7.12502
lthumb 11.7779 17.5947
rfemur -46.3487 -9.79682 21.138
rtibia 48.6237
rfoot -6.80397 1.49324
rtoes 5.78592
lfemur -39.9048 3.62798 -28.0808
ltibia 28.2279
lfoot 6.2914 -2.58382
ltoes -0.970725
127
root 24.2259 17.0188 -2.47768 352.369 -75.9954 20.704
lowerback 62.4104 -5.32373 18.0611
upperback 16.385 1.56634 2.49815
thorax -1.48588 0.349975 -5.17199
lowerneck -4.55088 -9.5404 0.539808
upperneck -19.9449 -12.5192 7.83419
head -4.80736 -7.10325 2.68551
rclavicle 1.59028e-014 -1.81888e-014
rhumerus 51.0726 -3.80979 -45.8197
rradius 16.4559
rwrist -2.04492
rhand -24.4633 -4.43621
rfingers 7.12502
rthumb 2.02994 -34.4063
lclavicle 1.59028e-014 -1.81888e-014
lhumerus -5.61257 -28.0193 84.8376
lradius 50.7599
lwrist 28.3297
lhand -14.5345 -12.06
lfingers 7.12502
lthumb 11.6137 17.5982
rfemur -47.2338 -9.78834 20.8839
rtibia 48.982
rfoot -6.91249 1.44321
rtoes 5.61764
lfemur -40.6811 3.76657 -28.6272
ltibia 28.3935
lfoot 6.34529 -2.91827
ltoes -1.27376
128
root 24.2103 17.0068 -2.47165 351.99 -75.9098 21.7847
lowerback 62.9969 -5.43347 18.0109
upperback 16.1957 1.56759 2.42474
thorax -1.70138 0.338822 -5.19895
lowerneck -4.62916 -9.53375 0.676466
upperneck -20.3004 -12.5312 7.76616
head -4.92047 -7.13494 2.65958
rclavicle -5.725e-014 -5.1684e-015
rhumerus 51.6552 -4.40903 -45.6152
rradius 16.3279
rwrist -1.79074
rhand -24.5187 -4.31785
rfingers 7.12502
rthumb 1.97645 -34.2884
lclavicle -5.725e-014 -5.1684e-015
lhumerus -5.74456 -28.2566 84.8328
lradius 50.9142
lwrist 28.661
lhand -14.684 -12.0737
lfingers 7.12502
lthumb 11.4695 17.5926
rfemur -48.1358 -9.7888 20.6688
rtibia 49.3427
rfoot -7.02125 1.38434
rtoes 5.56504
lfemur -41.4973 3.9311 -29.1664
ltibia 28.593
lfoot 6.4176 -3.27545
ltoes -1.31213
129
root 24.1935 16.9949 -2.46526 351.555 -75.8423 22.887
lowerback 63.6018 -5.53974 17.9508
upperback 16.0133 1.56559 2.34003
thorax -1.90738 0.327563 -5.23316
lowerneck -4.6951 -9.51692 0.820657
upperneck -20.6783 -12.5297 7.69572
head -5.04413 -7.16158 2.6336
rclavicle 5.40694e-014 1.37161e-014
rhumerus 52.2112 -5.03136 -45.4693
rradius 16.2556
rwrist -1.58868
rhand -24.617 -4.28491
rfingers 7.12502
rthumb 1.8815 -34.2564
lclavicle 5.40694e-014 1.37161e-014
lhumerus -5.88268 -28.4485 84.83
lradius 51.0649
lwrist 28.9637
lhand -14.7878 -12.0625
lfingers 7.12502
lthumb 11.3694 17.6093
rfemur -48.9968 -9.78448 20.4475
rtibia 49.7084
rfoot -7.14066 1.33741
rtoes 5.39888
lfemur -42.2819 4.02989 -29.663
ltibia 28.8194
lfoot 6.44692 -3.54266
ltoes -1.2293
130
root 24.1767 16.9822 -2.45908 351.166 -75.7675 23.9532
lowerback 64.1729 -5.62579 17.8691
upperback 15.8326 1.56935 2.28029
thorax -2.11248 0.315771 -5.23606
lowerneck -4.74545 -9.50094 0.897438
upperneck -21.0311 -12.5219 7.66767
head -5.1551 -7.182 2.62963
rclavicle -5.725e-014 6.75868e-015
rhumerus 52.7482 -5.60059 -45.2588
rradius 16.1993
rwrist -1.46153
rhand -24.7383 -4.29522
rfingers 7.12502
rthumb 1.76435 -34.2677
lclavicle -5.725e-014 6.75868e-015
lhumerus -6.05698 -28.5451 84.8964
lradius 51.206
lwrist 29.1725
lhand -14.8746 -12.0617
lfingers 7.12502
lthumb 11.2857 17.6147
rfemur -49.8759 -9.76262 20.2212
rtibia 50.087
rfoot -7.27655 1.25397
rtoes 5.3823
lfemur -43.0881 4.1059 -30.1613
ltibia 29.0718
lfoot 6.45795 -3.83265
ltoes -1.5699
131
root 24.1578 16.9677 -2.45287 350.789 -75.6854 25.0033
lowerback 64.7413 -5.6906 17.7555
upperback 15.6397 1.58268 2.25091
thorax -2.33336 0.302037 -5.19726
lowerneck -4.79718 -9.48484 0.967238
upperneck -21.3598 -12.5243 7.58832
head -5.26154 -7.2031 2.61043
rclavicle 7.63333e-014 -2.70347e-014
rhumerus 53.2597 -6.04092 -44.8605
rradius 16.1245
rwrist -1.54985
rhand -24.9148 -4.27286
rfingers 7.12502
rthumb 1.59386 -34.2467
lclavicle 7.63333e-014 -2.70347e-014
lhumerus -6.26437 -28.6231 85.0154
lradius 51.3222
lwrist 29.4242
lhand -14.9215 -12.0997
lfingers 7.12502
lthumb 11.2404 17.5791
rfemur -50.7491 -9.77447 20.007
rtibia 50.4764
rfoot -7.43179 1.2021
rtoes 5.25883
lfemur -43.8976 4.14631 -30.6409
ltibia 29.3497
lfoot 6.45688 -4.08188
ltoes -1.45058
132
root 24.1383 16.9526 -2.4468 350.341 -75.5754 26.114
lowerback 65.2695 -5.76718 17.635
upperback 15.4756 1.56421 2.20722
thorax -2.52371 0.279718 -5.16255
lowerneck -4.844 -9.46284 1.03099
upperneck -21.7147 -12.5122 7.54795
head -5.37455 -7.2204 2.60521
rclavicle -3.18055e-014 3.57812e-014
rhumerus 53.8047 -6.52952 -44.5835
rradius 16.0587
rwrist -1.61914
rhand -25.0397 -4.25442
rfingers 7.12502
rthumb 1.47323 -34.2291
lclavicle -3.18055e-014 3.57812e-014
lhumerus -6.43648 -28.6959 85.0897
lradius 51.4391
lwrist 29.6469
lhand -14.9203 -12.0928
lfingers 7.12502
lthumb 11.2416 17.586
rfemur -51.608 -9.7968 19.7644
rtibia 50.8762
rfoot -7.57919 1.14292
rtoes 5.07351
lfemur -44.6782 4.08243 -31.1043
ltibia 29.6506
lfoot 6.41229 -4.26397
ltoes -1.83919
133
root 24.119 16.937 -2.44115 350.062 -75.4774 27.0401
lowerback 65.8118 -5.85707 17.5691
upperback 15.2813 1.57175 2.14252
thorax -2.73512 0.27219 -5.18087
lowerneck -4.89614 -9.45175 1.11293
upperneck -21.9883 -12.5061 7.54085
head -5.45985 -7.23959 2.60279
rclavicle 6.36111e-015 -2.70347e-014
rhumerus 54.236 -7.03315 -44.3431
rradius 16.0092
rwrist -1.64601
rhand -25.2119 -4.26694
rfingers 7.12502
rthumb 1.30693 -34.2427
lclavicle 6.36111e-015 -2.70347e-014
lhumerus -6.65227 -28.8044 85.1828
lradius 51.5138
lwrist 29.7871
lhand -14.92 -12.1028
lfingers 7.12502
lthumb 11.2419 17.5759
rfemur -52.4552 -9.76763 19.5426
rtibia 51.2898
rfoot -7.73096 1.01726
rtoes 5.13766
lfemur -45.4629 3.98774 -31.4904
ltibia 29.9697
lfoot 6.34321 -4.40941
ltoes -1.99414
